<mxfile host="app.diagrams.net" modified="2023-08-31T02:38:17.686Z" agent="Mozilla/5.0 (X11; Linux x86_64; rv:109.0) Gecko/20100101 Firefox/115.0" version="21.7.1" etag="n83rNqUmiSIp1euC3aIt" type="gitlab">
  <diagram name="Page-1" id="VsrORnX9UxDJBBZwITZO">
    <mxGraphModel>
      <root>
        <mxCell id="0" />
        <mxCell id="1" parent="0" />
      </root>
    </mxGraphModel>
  </diagram>
</mxfile>
